<?xml version="1.0" encoding="utf-8"?>
<!-- Generator: Adobe Illustrator 20.0.0, SVG Export Plug-In . SVG Version: 6.00 Build 0)  -->
<svg version="1.1" id="Layer_1" xmlns="http://www.w3.org/2000/svg" xmlns:xlink="http://www.w3.org/1999/xlink" x="0px" y="0px"
	 viewBox="0 0 70.3 80.3" style="enable-background:new 0 0 70.3 80.3;" xml:space="preserve">
<g>
	<path d="M48.1,57.6c-2.8,8.2-10.5,13.8-19.2,13.8c-11.2,0-20.2-9.1-20.2-20.2c0-6.4,3-12.3,8-16.1l0-9.2C7,30.5,0.8,40.3,0.8,51.2
		c0,15.5,12.6,28.2,28.2,28.2c9.1,0,17.6-4.4,22.9-11.7L48.1,57.6z"/>
	<path d="M69.3,59.9L69.3,59.9c-0.6-2.1-2.9-3.2-5-2.6l-1.9,0.6L55,38H30.1v-4.8h11.4c2.2,0,4-1.8,4-4s-1.8-4-4-4H30.1v-9.8
		c3.1-0.9,5.2-3.7,5.2-7.1C35.3,4.3,32,1,27.9,1c-4.1,0-7.4,3.3-7.4,7.4c0,1.7,0.6,3.3,1.6,4.6v33h27.3l8.2,21.7l9-2.8
		C68.8,64.2,69.9,62,69.3,59.9z"/>
</g>
</svg>
