<?xml version="1.0" encoding="utf-8"?>
<!-- Generator: Adobe Illustrator 20.0.0, SVG Export Plug-In . SVG Version: 6.00 Build 0)  -->
<svg version="1.1" id="Layer_1" xmlns="http://www.w3.org/2000/svg" xmlns:xlink="http://www.w3.org/1999/xlink" x="0px" y="0px"
	 viewBox="0 0 80 80.3" style="enable-background:new 0 0 80 80.3;" xml:space="preserve">
<g>
	<path d="M60.1,20.4c1.8,0,3.3-1.5,3.3-3.3V5.3c0-1.8-1.5-3.3-3.3-3.3c-1.8,0-3.3,1.5-3.3,3.3v11.8C56.8,18.9,58.3,20.4,60.1,20.4z"
		/>
	<path d="M20.5,20.4c1.8,0,3.3-1.5,3.3-3.3V5.3c0-1.8-1.5-3.3-3.3-3.3c-1.8,0-3.3,1.5-3.3,3.3v11.8C17.2,18.9,18.7,20.4,20.5,20.4z"
		/>
	<path d="M66.7,8.1v3.5c0,1.8,0,3,0,4.9c0,3.6-3,6.6-6.6,6.6c-3.6,0-6.6-3-6.6-6.6c0-2,0-3,0-4.9V8.1H27.2v3.5c0,2.1,0,3,0,4.9
		c0,3.6-3,6.6-6.6,6.6c-3.6,0-6.6-3-6.6-6.6c0-2,0-2.9,0-4.9V8.1H1.5v70.2h77.1V8.1H66.7z M21.9,65.2h-7.9v-7.9h7.9V65.2z
		 M21.9,54.6h-7.9v-7.9h7.9V54.6z M33,65.2h-7.9v-7.9H33V65.2z M33,54.6h-7.9v-7.9H33V54.6z M33,44h-7.9V36H33V44z M44.2,65.2h-7.9
		v-7.9h7.9V65.2z M44.2,54.6h-7.9v-7.9h7.9V54.6z M44.2,44h-7.9V36h7.9V44z M55.3,65.2h-7.9v-7.9h7.9V65.2z M55.3,54.6h-7.9v-7.9
		h7.9V54.6z M55.3,44h-7.9V36h7.9V44z M66.5,54.6h-7.9v-7.9h7.9V54.6z M66.5,44h-7.9V36h7.9V44z M66.5,30.4H13.9v-1.9h52.5V30.4z"/>
</g>
</svg>
