<?xml version="1.0" encoding="utf-8"?>
<!-- Generator: Adobe Illustrator 20.0.0, SVG Export Plug-In . SVG Version: 6.00 Build 0)  -->
<svg version="1.1" id="Layer_1" xmlns="http://www.w3.org/2000/svg" xmlns:xlink="http://www.w3.org/1999/xlink" x="0px" y="0px"
	 viewBox="0 0 39.8 80.3" style="enable-background:new 0 0 39.8 80.3;" xml:space="preserve">
<style type="text/css">
	.st0{fill:#65BB70;stroke:#65BB70;stroke-width:2;stroke-miterlimit:10;}
</style>
<g>
	<path class="st0" d="M22.4,70v9.3h-5.3v-9c-6.4,0-11.5-1.2-15.5-3.7v-9.6c1.7,1.5,4.1,2.8,7.1,3.8c3,1,5.8,1.5,8.4,1.5V43.4
		C10.3,40.2,6,37.4,4,34.7S1,29,1,25.4c0-4.3,1.5-7.9,4.5-11c3-3.1,6.9-5,11.5-5.6V1h5.3v7.6c6,0.2,10.2,1,12.4,2.4v9.2
		c-3.1-2.3-7.3-3.5-12.4-3.7v19.8c6.3,2.9,10.6,5.8,12.9,8.5c2.3,2.7,3.5,5.9,3.5,9.3c0,4.2-1.4,7.7-4.3,10.6
		C31.5,67.4,27.5,69.2,22.4,70z M17.1,33.8V16.7C15,17.1,13.3,18,12,19.4c-1.3,1.4-1.9,3.1-1.9,5.1c0,2.1,0.5,3.8,1.5,5.2
		C12.7,31.1,14.5,32.4,17.1,33.8z M22.4,45.7v16.5c4.9-1,7.3-3.6,7.3-7.6C29.7,51.2,27.2,48.2,22.4,45.7z"/>
</g>
</svg>
