<?xml version="1.0" encoding="utf-8"?>
<!-- Generator: Adobe Illustrator 20.0.0, SVG Export Plug-In . SVG Version: 6.00 Build 0)  -->
<svg version="1.1" xmlns="http://www.w3.org/2000/svg" xmlns:xlink="http://www.w3.org/1999/xlink" x="0px" y="0px"
	 viewBox="0 0 80.3 80.3" style="enable-background:new 0 0 80.3 80.3;" xml:space="preserve">
<style type="text/css">
	.st0{fill:#FBD116;}
</style>
<g id="Layer_1">
</g>
<g id="Layer_2">
	<path class="st0" d="M40.2,0.2c-22.1,0-40,17.9-40,40s17.9,40,40,40s40-17.9,40-40S62.2,0.2,40.2,0.2z M51.8,23.4
		c2.3,0,4.2,2.8,4.2,6.3S54.2,36,51.8,36s-4.2-2.8-4.2-6.3S49.5,23.4,51.8,23.4z M28.5,23.4c2.3,0,4.2,2.8,4.2,6.3S30.8,36,28.5,36
		s-4.2-2.8-4.2-6.3S26.2,23.4,28.5,23.4z M61,55.5c-5.7,5.7-13.3,8.6-20.8,8.6s-15.1-2.9-20.8-8.6c-0.8-0.8-0.8-2.2,0-3
		c0.8-0.8,2.2-0.8,3,0c9.9,9.9,25.9,9.8,35.7,0c0.8-0.8,2.2-0.8,3,0C61.8,53.4,61.8,54.7,61,55.5z"/>
</g>
</svg>
